<?xml version="1.0" encoding="UTF-8" standalone="no"?>
<!DOCTYPE svg PUBLIC "-//W3C//DTD SVG 1.1//EN" "http://www.w3.org/Graphics/SVG/1.1/DTD/svg11.dtd">
<!-- Created with Vectornator (http://vectornator.io/) -->
<svg height="100%" stroke-miterlimit="10" style="fill-rule:nonzero;clip-rule:evenodd;stroke-linecap:round;stroke-linejoin:round;" version="1.1" viewBox="0 0 1305 343" width="100%" xml:space="preserve" xmlns="http://www.w3.org/2000/svg" xmlns:vectornator="http://vectornator.io" xmlns:xlink="http://www.w3.org/1999/xlink">
<defs/>
<clipPath id="ArtboardFrame">
<rect height="343" width="1305" x="0" y="0"/>
</clipPath>
<g clip-path="url(#ArtboardFrame)" id="Untitled" vectornator:layerName="Untitled">
<path d="M80 0L1225 0C1269.18 0 1305 35.8172 1305 80L1305 263C1305 307.183 1269.18 343 1225 343L80 343C35.8172 343 0 307.183 0 263L0 80C0 35.8172 35.8172 1.42109e-14 80 0Z" fill="#ffffff" fill-rule="nonzero" opacity="1" stroke="none" vectornator:layerName="rect"/>
<path d="M432.658 110.241C437.192 110.207 441.643 111.465 445.493 113.869C445.882 111.73 446.096 109.564 446.134 107.391C446.134 97.3546 438.513 88.364 429.233 88.364C422.016 88.364 417.504 94.3661 417.504 101.78C417.47 105.786 418.871 109.67 421.453 112.724C424.951 111.049 428.784 110.2 432.658 110.241Z" fill="#ffffff" fill-rule="nonzero" opacity="1" stroke="none" vectornator:layerName="path"/>
<path d="M454.403 146.599C455.691 142.178 456.259 139.111 456.259 137.118C456.219 136.258 455.852 135.445 455.233 134.85C454.613 134.254 453.789 133.919 452.932 133.917C452.133 133.932 451.361 134.214 450.741 134.72C450.12 135.225 449.685 135.925 449.506 136.707C449.155 138.159 448.405 142.094 447.665 144.592C447.971 143.657 448.25 142.707 448.504 141.742C448.923 140.047 450.187 139.205 451.865 139.205C452.728 139.238 453.543 139.612 454.134 140.245C454.724 140.877 455.042 141.718 455.02 142.585C454.98 143.947 454.763 145.299 454.373 146.604L454.403 146.599Z" fill="#352d8e" fill-rule="nonzero" opacity="1" stroke="none" vectornator:layerName="path"/>
<path d="M472.272 141.98C472.232 141.121 471.865 140.31 471.247 139.715C470.629 139.119 469.807 138.784 468.95 138.779C468.152 138.795 467.381 139.078 466.762 139.583C466.142 140.089 465.708 140.787 465.529 141.569C465.174 143.056 464.409 147.05 463.658 149.543L463.693 149.543C464.058 148.433 464.399 147.308 464.68 146.163C465.1 144.468 466.363 143.626 468.047 143.626C468.909 143.659 469.723 144.033 470.313 144.666C470.903 145.299 471.22 146.139 471.196 147.006C471.172 148.058 471.028 149.104 470.766 150.123C471.813 146.436 472.272 143.769 472.272 141.98Z" fill="#352d8e" fill-rule="nonzero" opacity="1" stroke="none" vectornator:layerName="path"/>
<path d="M432.658 110.241C434.911 110.236 437.155 110.538 439.327 111.138C440.468 109.576 441.038 107.668 440.941 105.734C440.845 103.8 440.087 101.958 438.797 100.519C437.507 99.0793 435.762 98.1302 433.856 97.831C431.951 97.5321 430.001 97.901 428.334 98.8764L431.79 104.586L425.318 101.776C424.442 103.196 424.002 104.844 424.055 106.514C424.108 108.184 424.65 109.801 425.614 111.163C427.911 110.541 430.28 110.231 432.658 110.241Z" fill="#163b36" fill-rule="nonzero" opacity="1" stroke="none" vectornator:layerName="path"/>
<path d="M382.802 146.986C385.528 146.986 387.738 144.767 387.738 142.03C387.738 139.292 385.528 137.073 382.802 137.073C380.076 137.073 377.866 139.292 377.866 142.03C377.866 144.767 380.076 146.986 382.802 146.986Z" fill="#352d8e" fill-rule="nonzero" opacity="1" stroke="none" vectornator:layerName="path"/>
<path d="M382.802 127.161C385.528 127.161 387.738 124.942 387.738 122.205C387.738 119.468 385.528 117.249 382.802 117.249C380.076 117.249 377.866 119.468 377.866 122.205C377.866 124.942 380.076 127.161 382.802 127.161Z" fill="#352d8e" fill-rule="nonzero" opacity="1" stroke="none" vectornator:layerName="path"/>
<path d="M372.93 137.074C375.656 137.074 377.866 134.855 377.866 132.117C377.866 129.38 375.656 127.161 372.93 127.161C370.203 127.161 367.993 129.38 367.993 132.117C367.993 134.855 370.203 137.074 372.93 137.074Z" fill="#352d8e" fill-rule="nonzero" opacity="1" stroke="none" vectornator:layerName="path"/>
<path d="M395.143 165.403L396.13 165.403C412.741 165.403 428.088 153.568 432.293 137.286C432.713 135.596 433.971 134.749 435.655 134.749C436.518 134.784 437.333 135.159 437.923 135.792C438.513 136.426 438.832 137.267 438.809 138.134C438.734 139.864 438.344 141.566 437.659 143.155C437.778 142.97 437.882 142.776 437.97 142.575C439.219 139.708 439.864 136.614 439.865 133.485C439.865 128.623 436.499 125.451 431.666 125.451C423.24 125.451 421.552 132.836 417.998 140.731C414.31 148.929 407.538 157.795 390.458 157.795C372.712 157.795 354.478 145.321 358.926 119.955C358.98 119.637 359.024 119.355 359.059 119.092C358.407 122.369 358.076 125.703 358.071 129.044C358.121 149.464 374.011 164.927 395.143 165.403Z" fill="#352d8e" fill-rule="nonzero" opacity="1" stroke="none" vectornator:layerName="path"/>
</g>
<g id="Layer-1" vectornator:layerName="Layer 1">
<g fill="#313131" opacity="1" stroke="none" vectornator:layerName="Text 2">
<path d="M48.42 275.988L57.708 250.788L60.912 250.788L70.164 275.988L66.924 275.988L59.292 254.568L59.292 254.568L51.588 275.988L48.42 275.988ZM52.668 269.508L53.532 267.06L64.944 267.06L65.808 269.508L52.668 269.508Z"/>
<path d="M73.8 275.988L73.8 250.068L76.824 250.068L76.824 275.988L73.8 275.988Z"/>
<path d="M81.936 275.988L81.936 250.068L84.96 250.068L84.96 275.988L81.936 275.988Z"/>
<path d="M90.072 266.088L90.072 263.532L104.328 263.532L104.328 266.088L90.072 266.088Z"/>
<path d="M109.728 275.988L109.728 257.052L112.752 257.052L112.752 275.988L109.728 275.988ZM111.24 253.452C110.64 253.452 110.142 253.254 109.746 252.858C109.35 252.462 109.152 251.964 109.152 251.364C109.152 250.764 109.35 250.278 109.746 249.906C110.142 249.534 110.64 249.348 111.24 249.348C111.816 249.348 112.308 249.534 112.716 249.906C113.124 250.278 113.328 250.764 113.328 251.364C113.328 251.964 113.124 252.462 112.716 252.858C112.308 253.254 111.816 253.452 111.24 253.452Z"/>
<path d="M118.116 275.988L118.116 257.052L120.852 257.052L120.996 260.04L120.996 260.04C121.548 258.96 122.346 258.12 123.39 257.52C124.434 256.92 125.64 256.62 127.008 256.62C128.4 256.62 129.612 256.884 130.644 257.412C131.676 257.94 132.48 258.744 133.056 259.824C133.632 260.904 133.92 262.272 133.92 263.928L133.92 275.988L130.896 275.988L130.896 264.252C130.896 262.572 130.482 261.312 129.654 260.472C128.826 259.632 127.716 259.212 126.324 259.212C125.388 259.212 124.524 259.434 123.732 259.878C122.94 260.322 122.31 260.976 121.842 261.84C121.374 262.704 121.14 263.76 121.14 265.008L121.14 275.988L118.116 275.988Z"/>
<path d="M138.924 266.088L138.924 263.532L153.18 263.532L153.18 266.088L138.924 266.088Z"/>
<path d="M166.428 276.42C164.676 276.42 163.128 276.012 161.784 275.196C160.44 274.38 159.396 273.228 158.652 271.74C157.908 270.252 157.536 268.512 157.536 266.52C157.536 264.504 157.914 262.758 158.67 261.282C159.426 259.806 160.482 258.66 161.838 257.844C163.194 257.028 164.748 256.62 166.5 256.62C168.276 256.62 169.83 257.028 171.162 257.844C172.494 258.66 173.532 259.806 174.276 261.282C175.02 262.758 175.392 264.504 175.392 266.52C175.392 268.512 175.014 270.252 174.258 271.74C173.502 273.228 172.452 274.38 171.108 275.196C169.764 276.012 168.204 276.42 166.428 276.42ZM166.428 273.828C167.532 273.828 168.528 273.558 169.416 273.018C170.304 272.478 171.006 271.662 171.522 270.57C172.038 269.478 172.296 268.128 172.296 266.52C172.296 264.888 172.044 263.532 171.54 262.452C171.036 261.372 170.346 260.562 169.47 260.022C168.594 259.482 167.604 259.212 166.5 259.212C165.42 259.212 164.436 259.482 163.548 260.022C162.66 260.562 161.952 261.372 161.424 262.452C160.896 263.532 160.632 264.888 160.632 266.52C160.632 268.128 160.89 269.478 161.406 270.57C161.922 271.662 162.618 272.478 163.494 273.018C164.37 273.558 165.348 273.828 166.428 273.828Z"/>
<path d="M179.784 275.988L179.784 257.052L182.52 257.052L182.664 260.04L182.664 260.04C183.216 258.96 184.014 258.12 185.058 257.52C186.102 256.92 187.308 256.62 188.676 256.62C190.068 256.62 191.28 256.884 192.312 257.412C193.344 257.94 194.148 258.744 194.724 259.824C195.3 260.904 195.588 262.272 195.588 263.928L195.588 275.988L192.564 275.988L192.564 264.252C192.564 262.572 192.15 261.312 191.322 260.472C190.494 259.632 189.384 259.212 187.992 259.212C187.056 259.212 186.192 259.434 185.4 259.878C184.608 260.322 183.978 260.976 183.51 261.84C183.042 262.704 182.808 263.76 182.808 265.008L182.808 275.988L179.784 275.988Z"/>
<path d="M208.44 276.42C206.76 276.42 205.272 276.012 203.976 275.196C202.68 274.38 201.666 273.228 200.934 271.74C200.202 270.252 199.836 268.512 199.836 266.52C199.836 264.528 200.202 262.788 200.934 261.3C201.666 259.812 202.686 258.66 203.994 257.844C205.302 257.028 206.808 256.62 208.512 256.62C210.336 256.62 211.86 257.028 213.084 257.844C214.308 258.66 215.232 259.752 215.856 261.12C216.48 262.488 216.792 263.988 216.792 265.62C216.792 265.86 216.792 266.1 216.792 266.34C216.792 266.58 216.78 266.868 216.756 267.204L202.104 267.204L202.104 264.864L213.84 264.864C213.792 263.016 213.258 261.606 212.238 260.634C211.218 259.662 209.952 259.176 208.44 259.176C207.432 259.176 206.502 259.422 205.65 259.914C204.798 260.406 204.108 261.132 203.58 262.092C203.052 263.052 202.788 264.252 202.788 265.692L202.788 266.7C202.788 268.284 203.052 269.61 203.58 270.678C204.108 271.746 204.798 272.544 205.65 273.072C206.502 273.6 207.432 273.864 208.44 273.864C209.784 273.864 210.84 273.606 211.608 273.09C212.376 272.574 212.94 271.836 213.3 270.876L216.288 270.876C216 271.932 215.502 272.88 214.794 273.72C214.086 274.56 213.198 275.22 212.13 275.7C211.062 276.18 209.832 276.42 208.44 276.42Z"/>
<path d="M237.492 276.42C235.788 276.42 234.378 276.162 233.262 275.646C232.146 275.13 231.3 274.41 230.724 273.486C230.148 272.562 229.8 271.488 229.68 270.264L232.776 270.264C232.872 270.912 233.094 271.506 233.442 272.046C233.79 272.586 234.3 273.024 234.972 273.36C235.644 273.696 236.496 273.864 237.528 273.864C238.344 273.864 239.04 273.738 239.616 273.486C240.192 273.234 240.63 272.88 240.93 272.424C241.23 271.968 241.38 271.44 241.38 270.84C241.38 270.048 241.206 269.43 240.858 268.986C240.51 268.542 240.006 268.206 239.346 267.978C238.686 267.75 237.864 267.576 236.88 267.456C235.824 267.312 234.888 267.108 234.072 266.844C233.256 266.58 232.566 266.232 232.002 265.8C231.438 265.368 231.012 264.828 230.724 264.18C230.436 263.532 230.292 262.764 230.292 261.876C230.292 260.844 230.568 259.932 231.12 259.14C231.672 258.348 232.458 257.73 233.478 257.286C234.498 256.842 235.704 256.62 237.096 256.62C239.136 256.62 240.75 257.088 241.938 258.024C243.126 258.96 243.828 260.292 244.044 262.02L241.056 262.02C240.936 261.132 240.528 260.436 239.832 259.932C239.136 259.428 238.212 259.176 237.06 259.176C235.836 259.176 234.912 259.404 234.288 259.86C233.664 260.316 233.352 260.916 233.352 261.66C233.352 262.212 233.49 262.71 233.766 263.154C234.042 263.598 234.516 263.97 235.188 264.27C235.86 264.57 236.76 264.792 237.888 264.936C239.304 265.104 240.504 265.374 241.488 265.746C242.472 266.118 243.222 266.688 243.738 267.456C244.254 268.224 244.5 269.268 244.476 270.588C244.476 271.836 244.182 272.892 243.594 273.756C243.006 274.62 242.19 275.28 241.146 275.736C240.102 276.192 238.884 276.42 237.492 276.42Z"/>
<path d="M256.824 276.42C255.144 276.42 253.656 276.012 252.36 275.196C251.064 274.38 250.05 273.228 249.318 271.74C248.586 270.252 248.22 268.512 248.22 266.52C248.22 264.528 248.586 262.788 249.318 261.3C250.05 259.812 251.07 258.66 252.378 257.844C253.686 257.028 255.192 256.62 256.896 256.62C258.72 256.62 260.244 257.028 261.468 257.844C262.692 258.66 263.616 259.752 264.24 261.12C264.864 262.488 265.176 263.988 265.176 265.62C265.176 265.86 265.176 266.1 265.176 266.34C265.176 266.58 265.164 266.868 265.14 267.204L250.488 267.204L250.488 264.864L262.224 264.864C262.176 263.016 261.642 261.606 260.622 260.634C259.602 259.662 258.336 259.176 256.824 259.176C255.816 259.176 254.886 259.422 254.034 259.914C253.182 260.406 252.492 261.132 251.964 262.092C251.436 263.052 251.172 264.252 251.172 265.692L251.172 266.7C251.172 268.284 251.436 269.61 251.964 270.678C252.492 271.746 253.182 272.544 254.034 273.072C254.886 273.6 255.816 273.864 256.824 273.864C258.168 273.864 259.224 273.606 259.992 273.09C260.76 272.574 261.324 271.836 261.684 270.876L264.672 270.876C264.384 271.932 263.886 272.88 263.178 273.72C262.47 274.56 261.582 275.22 260.514 275.7C259.446 276.18 258.216 276.42 256.824 276.42Z"/>
<path d="M277.524 276.42C275.796 276.42 274.26 276.006 272.916 275.178C271.572 274.35 270.516 273.192 269.748 271.704C268.98 270.216 268.596 268.488 268.596 266.52C268.596 264.528 268.98 262.794 269.748 261.318C270.516 259.842 271.572 258.69 272.916 257.862C274.26 257.034 275.796 256.62 277.524 256.62C279.684 256.62 281.49 257.196 282.942 258.348C284.394 259.5 285.324 261.048 285.732 262.992L282.636 262.992C282.372 261.792 281.766 260.862 280.818 260.202C279.87 259.542 278.76 259.212 277.488 259.212C276.384 259.212 275.394 259.488 274.518 260.04C273.642 260.592 272.952 261.408 272.448 262.488C271.944 263.568 271.692 264.912 271.692 266.52C271.692 267.72 271.836 268.782 272.124 269.706C272.412 270.63 272.814 271.398 273.33 272.01C273.846 272.622 274.458 273.084 275.166 273.396C275.874 273.708 276.648 273.864 277.488 273.864C278.352 273.864 279.138 273.714 279.846 273.414C280.554 273.114 281.154 272.676 281.646 272.1C282.138 271.524 282.468 270.84 282.636 270.048L285.732 270.048C285.348 271.944 284.418 273.48 282.942 274.656C281.466 275.832 279.66 276.42 277.524 276.42Z"/>
<path d="M296.928 276.42C295.536 276.42 294.324 276.156 293.292 275.628C292.26 275.1 291.456 274.29 290.88 273.198C290.304 272.106 290.016 270.744 290.016 269.112L290.016 257.052L293.04 257.052L293.04 268.788C293.04 270.468 293.454 271.728 294.282 272.568C295.11 273.408 296.22 273.828 297.612 273.828C298.572 273.828 299.436 273.606 300.204 273.162C300.972 272.718 301.59 272.064 302.058 271.2C302.526 270.336 302.76 269.28 302.76 268.032L302.76 257.052L305.784 257.052L305.784 275.988L303.048 275.988L302.868 272.964L302.868 272.964C302.364 274.068 301.59 274.92 300.546 275.52C299.502 276.12 298.296 276.42 296.928 276.42Z"/>
<path d="M310.896 275.988L310.896 257.052L313.632 257.052L313.848 260.508L313.848 260.508C314.28 259.644 314.844 258.924 315.54 258.348C316.236 257.772 317.082 257.34 318.078 257.052C319.074 256.764 320.196 256.62 321.444 256.62L321.444 259.788L319.572 259.788C318.852 259.788 318.156 259.884 317.484 260.076C316.812 260.268 316.206 260.58 315.666 261.012C315.126 261.444 314.7 262.032 314.388 262.776C314.076 263.52 313.92 264.456 313.92 265.584L313.92 275.988L310.896 275.988Z"/>
<path d="M325.224 275.988L325.224 257.052L328.248 257.052L328.248 275.988L325.224 275.988ZM326.736 253.452C326.136 253.452 325.638 253.254 325.242 252.858C324.846 252.462 324.648 251.964 324.648 251.364C324.648 250.764 324.846 250.278 325.242 249.906C325.638 249.534 326.136 249.348 326.736 249.348C327.312 249.348 327.804 249.534 328.212 249.906C328.62 250.278 328.824 250.764 328.824 251.364C328.824 251.964 328.62 252.462 328.212 252.858C327.804 253.254 327.312 253.452 326.736 253.452Z"/>
<path d="M340.956 275.988C339.876 275.988 338.94 275.82 338.148 275.484C337.356 275.148 336.75 274.578 336.33 273.774C335.91 272.97 335.7 271.884 335.7 270.516L335.7 259.608L332.388 259.608L332.388 257.052L335.7 257.052L336.096 252.336L338.724 252.336L338.724 257.052L344.088 257.052L344.088 259.608L338.724 259.608L338.724 270.516C338.724 271.644 338.952 272.406 339.408 272.802C339.864 273.198 340.668 273.396 341.82 273.396L344.016 273.396L344.016 275.988L340.956 275.988Z"/>
<path d="M350.352 283.908L354.636 273.972L353.592 273.972L346.5 257.052L349.776 257.052L355.644 271.632L355.644 271.632L361.764 257.052L364.896 257.052L353.484 283.908L350.352 283.908Z"/>
<path d="M377.964 283.908L377.964 257.052L380.7 257.052L380.952 260.004L380.952 260.004C381.336 259.38 381.822 258.816 382.41 258.312C382.998 257.808 383.706 257.4 384.534 257.088C385.362 256.776 386.316 256.62 387.396 256.62C389.1 256.62 390.594 257.052 391.878 257.916C393.162 258.78 394.164 259.956 394.884 261.444C395.604 262.932 395.964 264.636 395.964 266.556C395.964 268.452 395.604 270.144 394.884 271.632C394.164 273.12 393.156 274.29 391.86 275.142C390.564 275.994 389.064 276.42 387.36 276.42C385.896 276.42 384.612 276.12 383.508 275.52C382.404 274.92 381.564 274.08 380.988 273L380.988 283.908L377.964 283.908ZM387 273.792C388.128 273.792 389.13 273.498 390.006 272.91C390.882 272.322 391.578 271.482 392.094 270.39C392.61 269.298 392.868 268.008 392.868 266.52C392.868 265.032 392.61 263.742 392.094 262.65C391.578 261.558 390.882 260.718 390.006 260.13C389.13 259.542 388.128 259.248 387 259.248C385.8 259.248 384.756 259.542 383.868 260.13C382.98 260.718 382.296 261.558 381.816 262.65C381.336 263.742 381.096 265.032 381.096 266.52C381.096 268.008 381.336 269.298 381.816 270.39C382.296 271.482 382.98 272.322 383.868 272.91C384.756 273.498 385.8 273.792 387 273.792Z"/>
<path d="M400.356 275.988L400.356 250.068L403.38 250.068L403.38 275.988L400.356 275.988Z"/>
<path d="M414.396 276.42C412.956 276.42 411.756 276.15 410.796 275.61C409.836 275.07 409.116 274.35 408.636 273.45C408.156 272.55 407.916 271.584 407.916 270.552C407.916 269.304 408.234 268.242 408.87 267.366C409.506 266.49 410.4 265.824 411.552 265.368C412.704 264.912 414.048 264.684 415.584 264.684L420.3 264.684C420.3 263.46 420.156 262.44 419.868 261.624C419.58 260.808 419.112 260.196 418.464 259.788C417.816 259.38 416.952 259.176 415.872 259.176C414.792 259.176 413.868 259.446 413.1 259.986C412.332 260.526 411.852 261.324 411.66 262.38L408.564 262.38C408.708 261.132 409.128 260.082 409.824 259.23C410.52 258.378 411.402 257.73 412.47 257.286C413.538 256.842 414.672 256.62 415.872 256.62C417.576 256.62 418.98 256.926 420.084 257.538C421.188 258.15 422.004 259.002 422.532 260.094C423.06 261.186 423.324 262.476 423.324 263.964L423.324 275.988L420.624 275.988L420.444 272.748L420.444 272.748C420.204 273.252 419.898 273.726 419.526 274.17C419.154 274.614 418.716 275.004 418.212 275.34C417.708 275.676 417.138 275.94 416.502 276.132C415.866 276.324 415.164 276.42 414.396 276.42ZM414.828 273.864C415.62 273.864 416.352 273.684 417.024 273.324C417.696 272.964 418.278 272.478 418.77 271.866C419.262 271.254 419.64 270.564 419.904 269.796C420.168 269.028 420.3 268.224 420.3 267.384L420.3 267.024L415.836 267.024C414.708 267.024 413.79 267.168 413.082 267.456C412.374 267.744 411.864 268.146 411.552 268.662C411.24 269.178 411.084 269.76 411.084 270.408C411.084 271.104 411.228 271.71 411.516 272.226C411.804 272.742 412.23 273.144 412.794 273.432C413.358 273.72 414.036 273.864 414.828 273.864Z"/>
<path d="M435.168 275.988C434.088 275.988 433.152 275.82 432.36 275.484C431.568 275.148 430.962 274.578 430.542 273.774C430.122 272.97 429.912 271.884 429.912 270.516L429.912 259.608L426.6 259.608L426.6 257.052L429.912 257.052L430.308 252.336L432.936 252.336L432.936 257.052L438.3 257.052L438.3 259.608L432.936 259.608L432.936 270.516C432.936 271.644 433.164 272.406 433.62 272.802C434.076 273.198 434.88 273.396 436.032 273.396L438.228 273.396L438.228 275.988L435.168 275.988Z"/>
<path d="M443.628 275.988L443.628 255.036C443.628 253.884 443.82 252.942 444.204 252.21C444.588 251.478 445.158 250.938 445.914 250.59C446.67 250.242 447.6 250.068 448.704 250.068L451.476 250.068L451.476 252.66L449.208 252.66C448.296 252.66 447.642 252.846 447.246 253.218C446.85 253.59 446.652 254.232 446.652 255.144L446.652 275.988L443.628 275.988ZM440.676 259.608L440.676 257.052L451.692 257.052L451.692 259.608L440.676 259.608Z"/>
<path d="M462.852 276.42C461.1 276.42 459.552 276.012 458.208 275.196C456.864 274.38 455.82 273.228 455.076 271.74C454.332 270.252 453.96 268.512 453.96 266.52C453.96 264.504 454.338 262.758 455.094 261.282C455.85 259.806 456.906 258.66 458.262 257.844C459.618 257.028 461.172 256.62 462.924 256.62C464.7 256.62 466.254 257.028 467.586 257.844C468.918 258.66 469.956 259.806 470.7 261.282C471.444 262.758 471.816 264.504 471.816 266.52C471.816 268.512 471.438 270.252 470.682 271.74C469.926 273.228 468.876 274.38 467.532 275.196C466.188 276.012 464.628 276.42 462.852 276.42ZM462.852 273.828C463.956 273.828 464.952 273.558 465.84 273.018C466.728 272.478 467.43 271.662 467.946 270.57C468.462 269.478 468.72 268.128 468.72 266.52C468.72 264.888 468.468 263.532 467.964 262.452C467.46 261.372 466.77 260.562 465.894 260.022C465.018 259.482 464.028 259.212 462.924 259.212C461.844 259.212 460.86 259.482 459.972 260.022C459.084 260.562 458.376 261.372 457.848 262.452C457.32 263.532 457.056 264.888 457.056 266.52C457.056 268.128 457.314 269.478 457.83 270.57C458.346 271.662 459.042 272.478 459.918 273.018C460.794 273.558 461.772 273.828 462.852 273.828Z"/>
<path d="M476.208 275.988L476.208 257.052L478.944 257.052L479.16 260.508L479.16 260.508C479.592 259.644 480.156 258.924 480.852 258.348C481.548 257.772 482.394 257.34 483.39 257.052C484.386 256.764 485.508 256.62 486.756 256.62L486.756 259.788L484.884 259.788C484.164 259.788 483.468 259.884 482.796 260.076C482.124 260.268 481.518 260.58 480.978 261.012C480.438 261.444 480.012 262.032 479.7 262.776C479.388 263.52 479.232 264.456 479.232 265.584L479.232 275.988L476.208 275.988Z"/>
<path d="M490.248 275.988L490.248 257.052L492.984 257.052L493.128 259.644L493.128 259.644C493.704 258.708 494.484 257.97 495.468 257.43C496.452 256.89 497.484 256.62 498.564 256.62C499.476 256.62 500.298 256.746 501.03 256.998C501.762 257.25 502.404 257.634 502.956 258.15C503.508 258.666 503.952 259.308 504.288 260.076L504.288 260.076C504.912 258.948 505.758 258.09 506.826 257.502C507.894 256.914 509.016 256.62 510.192 256.62C511.584 256.62 512.778 256.89 513.774 257.43C514.77 257.97 515.538 258.786 516.078 259.878C516.618 260.97 516.888 262.332 516.888 263.964L516.888 275.988L513.9 275.988L513.9 264.288C513.9 262.584 513.528 261.312 512.784 260.472C512.04 259.632 511.032 259.212 509.76 259.212C508.896 259.212 508.11 259.44 507.402 259.896C506.694 260.352 506.13 261.024 505.71 261.912C505.29 262.8 505.08 263.88 505.08 265.152L505.08 275.988L502.056 275.988L502.056 264.288C502.056 262.584 501.684 261.312 500.94 260.472C500.196 259.632 499.2 259.212 497.952 259.212C497.112 259.212 496.338 259.44 495.63 259.896C494.922 260.352 494.352 261.024 493.92 261.912C493.488 262.8 493.272 263.88 493.272 265.152L493.272 275.988L490.248 275.988Z"/>
<path d="M532.764 275.988L532.764 255.036C532.764 253.884 532.956 252.942 533.34 252.21C533.724 251.478 534.294 250.938 535.05 250.59C535.806 250.242 536.736 250.068 537.84 250.068L540.612 250.068L540.612 252.66L538.344 252.66C537.432 252.66 536.778 252.846 536.382 253.218C535.986 253.59 535.788 254.232 535.788 255.144L535.788 275.988L532.764 275.988ZM529.812 259.608L529.812 257.052L540.828 257.052L540.828 259.608L529.812 259.608Z"/>
<path d="M551.988 276.42C550.236 276.42 548.688 276.012 547.344 275.196C546 274.38 544.956 273.228 544.212 271.74C543.468 270.252 543.096 268.512 543.096 266.52C543.096 264.504 543.474 262.758 544.23 261.282C544.986 259.806 546.042 258.66 547.398 257.844C548.754 257.028 550.308 256.62 552.06 256.62C553.836 256.62 555.39 257.028 556.722 257.844C558.054 258.66 559.092 259.806 559.836 261.282C560.58 262.758 560.952 264.504 560.952 266.52C560.952 268.512 560.574 270.252 559.818 271.74C559.062 273.228 558.012 274.38 556.668 275.196C555.324 276.012 553.764 276.42 551.988 276.42ZM551.988 273.828C553.092 273.828 554.088 273.558 554.976 273.018C555.864 272.478 556.566 271.662 557.082 270.57C557.598 269.478 557.856 268.128 557.856 266.52C557.856 264.888 557.604 263.532 557.1 262.452C556.596 261.372 555.906 260.562 555.03 260.022C554.154 259.482 553.164 259.212 552.06 259.212C550.98 259.212 549.996 259.482 549.108 260.022C548.22 260.562 547.512 261.372 546.984 262.452C546.456 263.532 546.192 264.888 546.192 266.52C546.192 268.128 546.45 269.478 546.966 270.57C547.482 271.662 548.178 272.478 549.054 273.018C549.93 273.558 550.908 273.828 551.988 273.828Z"/>
<path d="M565.344 275.988L565.344 257.052L568.08 257.052L568.296 260.508L568.296 260.508C568.728 259.644 569.292 258.924 569.988 258.348C570.684 257.772 571.53 257.34 572.526 257.052C573.522 256.764 574.644 256.62 575.892 256.62L575.892 259.788L574.02 259.788C573.3 259.788 572.604 259.884 571.932 260.076C571.26 260.268 570.654 260.58 570.114 261.012C569.574 261.444 569.148 262.032 568.836 262.776C568.524 263.52 568.368 264.456 568.368 265.584L568.368 275.988L565.344 275.988Z"/>
<path d="M591.192 283.908L595.476 273.972L594.432 273.972L587.34 257.052L590.616 257.052L596.484 271.632L596.484 271.632L602.604 257.052L605.736 257.052L594.324 283.908L591.192 283.908Z"/>
<path d="M615.564 276.42C613.812 276.42 612.264 276.012 610.92 275.196C609.576 274.38 608.532 273.228 607.788 271.74C607.044 270.252 606.672 268.512 606.672 266.52C606.672 264.504 607.05 262.758 607.806 261.282C608.562 259.806 609.618 258.66 610.974 257.844C612.33 257.028 613.884 256.62 615.636 256.62C617.412 256.62 618.966 257.028 620.298 257.844C621.63 258.66 622.668 259.806 623.412 261.282C624.156 262.758 624.528 264.504 624.528 266.52C624.528 268.512 624.15 270.252 623.394 271.74C622.638 273.228 621.588 274.38 620.244 275.196C618.9 276.012 617.34 276.42 615.564 276.42ZM615.564 273.828C616.668 273.828 617.664 273.558 618.552 273.018C619.44 272.478 620.142 271.662 620.658 270.57C621.174 269.478 621.432 268.128 621.432 266.52C621.432 264.888 621.18 263.532 620.676 262.452C620.172 261.372 619.482 260.562 618.606 260.022C617.73 259.482 616.74 259.212 615.636 259.212C614.556 259.212 613.572 259.482 612.684 260.022C611.796 260.562 611.088 261.372 610.56 262.452C610.032 263.532 609.768 264.888 609.768 266.52C609.768 268.128 610.026 269.478 610.542 270.57C611.058 271.662 611.754 272.478 612.63 273.018C613.506 273.558 614.484 273.828 615.564 273.828Z"/>
<path d="M635.724 276.42C634.332 276.42 633.12 276.156 632.088 275.628C631.056 275.1 630.252 274.29 629.676 273.198C629.1 272.106 628.812 270.744 628.812 269.112L628.812 257.052L631.836 257.052L631.836 268.788C631.836 270.468 632.25 271.728 633.078 272.568C633.906 273.408 635.016 273.828 636.408 273.828C637.368 273.828 638.232 273.606 639 273.162C639.768 272.718 640.386 272.064 640.854 271.2C641.322 270.336 641.556 269.28 641.556 268.032L641.556 257.052L644.58 257.052L644.58 275.988L641.844 275.988L641.664 272.964L641.664 272.964C641.16 274.068 640.386 274.92 639.342 275.52C638.298 276.12 637.092 276.42 635.724 276.42Z"/>
<path d="M649.692 275.988L649.692 257.052L652.428 257.052L652.644 260.508L652.644 260.508C653.076 259.644 653.64 258.924 654.336 258.348C655.032 257.772 655.878 257.34 656.874 257.052C657.87 256.764 658.992 256.62 660.24 256.62L660.24 259.788L658.368 259.788C657.648 259.788 656.952 259.884 656.28 260.076C655.608 260.268 655.002 260.58 654.462 261.012C653.922 261.444 653.496 262.032 653.184 262.776C652.872 263.52 652.716 264.456 652.716 265.584L652.716 275.988L649.692 275.988Z"/>
<path d="M671.976 275.988L681.264 250.788L684.468 250.788L693.72 275.988L690.48 275.988L682.848 254.568L682.848 254.568L675.144 275.988L671.976 275.988ZM676.224 269.508L677.088 267.06L688.5 267.06L689.364 269.508L676.224 269.508Z"/>
<path d="M697.572 275.988L697.572 250.788L705.672 250.788C707.688 250.788 709.344 251.124 710.64 251.796C711.936 252.468 712.896 253.374 713.52 254.514C714.144 255.654 714.456 256.944 714.456 258.384C714.456 259.8 714.144 261.084 713.52 262.236C712.896 263.388 711.942 264.3 710.658 264.972C709.374 265.644 707.712 265.98 705.672 265.98L700.596 265.98L700.596 275.988L697.572 275.988ZM700.596 263.424L705.636 263.424C707.748 263.424 709.23 262.962 710.082 262.038C710.934 261.114 711.36 259.896 711.36 258.384C711.36 256.8 710.934 255.558 710.082 254.658C709.23 253.758 707.748 253.308 705.636 253.308L700.596 253.308L700.596 263.424Z"/>
<path d="M718.596 275.988L718.596 250.788L721.62 250.788L721.62 275.988L718.596 275.988Z"/>
<path d="M733.788 276.42C732.084 276.42 730.674 276.162 729.558 275.646C728.442 275.13 727.596 274.41 727.02 273.486C726.444 272.562 726.096 271.488 725.976 270.264L729.072 270.264C729.168 270.912 729.39 271.506 729.738 272.046C730.086 272.586 730.596 273.024 731.268 273.36C731.94 273.696 732.792 273.864 733.824 273.864C734.64 273.864 735.336 273.738 735.912 273.486C736.488 273.234 736.926 272.88 737.226 272.424C737.526 271.968 737.676 271.44 737.676 270.84C737.676 270.048 737.502 269.43 737.154 268.986C736.806 268.542 736.302 268.206 735.642 267.978C734.982 267.75 734.16 267.576 733.176 267.456C732.12 267.312 731.184 267.108 730.368 266.844C729.552 266.58 728.862 266.232 728.298 265.8C727.734 265.368 727.308 264.828 727.02 264.18C726.732 263.532 726.588 262.764 726.588 261.876C726.588 260.844 726.864 259.932 727.416 259.14C727.968 258.348 728.754 257.73 729.774 257.286C730.794 256.842 732 256.62 733.392 256.62C735.432 256.62 737.046 257.088 738.234 258.024C739.422 258.96 740.124 260.292 740.34 262.02L737.352 262.02C737.232 261.132 736.824 260.436 736.128 259.932C735.432 259.428 734.508 259.176 733.356 259.176C732.132 259.176 731.208 259.404 730.584 259.86C729.96 260.316 729.648 260.916 729.648 261.66C729.648 262.212 729.786 262.71 730.062 263.154C730.338 263.598 730.812 263.97 731.484 264.27C732.156 264.57 733.056 264.792 734.184 264.936C735.6 265.104 736.8 265.374 737.784 265.746C738.768 266.118 739.518 266.688 740.034 267.456C740.55 268.224 740.796 269.268 740.772 270.588C740.772 271.836 740.478 272.892 739.89 273.756C739.302 274.62 738.486 275.28 737.442 275.736C736.398 276.192 735.18 276.42 733.788 276.42Z"/>
<path d="M743.112 280.416L745.2 272.46L748.332 272.46L745.2 280.416L743.112 280.416Z"/>
<path d="M767.844 276.42C766.404 276.42 765.204 276.15 764.244 275.61C763.284 275.07 762.564 274.35 762.084 273.45C761.604 272.55 761.364 271.584 761.364 270.552C761.364 269.304 761.682 268.242 762.318 267.366C762.954 266.49 763.848 265.824 765 265.368C766.152 264.912 767.496 264.684 769.032 264.684L773.748 264.684C773.748 263.46 773.604 262.44 773.316 261.624C773.028 260.808 772.56 260.196 771.912 259.788C771.264 259.38 770.4 259.176 769.32 259.176C768.24 259.176 767.316 259.446 766.548 259.986C765.78 260.526 765.3 261.324 765.108 262.38L762.012 262.38C762.156 261.132 762.576 260.082 763.272 259.23C763.968 258.378 764.85 257.73 765.918 257.286C766.986 256.842 768.12 256.62 769.32 256.62C771.024 256.62 772.428 256.926 773.532 257.538C774.636 258.15 775.452 259.002 775.98 260.094C776.508 261.186 776.772 262.476 776.772 263.964L776.772 275.988L774.072 275.988L773.892 272.748L773.892 272.748C773.652 273.252 773.346 273.726 772.974 274.17C772.602 274.614 772.164 275.004 771.66 275.34C771.156 275.676 770.586 275.94 769.95 276.132C769.314 276.324 768.612 276.42 767.844 276.42ZM768.276 273.864C769.068 273.864 769.8 273.684 770.472 273.324C771.144 272.964 771.726 272.478 772.218 271.866C772.71 271.254 773.088 270.564 773.352 269.796C773.616 269.028 773.748 268.224 773.748 267.384L773.748 267.024L769.284 267.024C768.156 267.024 767.238 267.168 766.53 267.456C765.822 267.744 765.312 268.146 765 268.662C764.688 269.178 764.532 269.76 764.532 270.408C764.532 271.104 764.676 271.71 764.964 272.226C765.252 272.742 765.678 273.144 766.242 273.432C766.806 273.72 767.484 273.864 768.276 273.864Z"/>
<path d="M781.776 283.908L781.776 257.052L784.512 257.052L784.764 260.004L784.764 260.004C785.148 259.38 785.634 258.816 786.222 258.312C786.81 257.808 787.518 257.4 788.346 257.088C789.174 256.776 790.128 256.62 791.208 256.62C792.912 256.62 794.406 257.052 795.69 257.916C796.974 258.78 797.976 259.956 798.696 261.444C799.416 262.932 799.776 264.636 799.776 266.556C799.776 268.452 799.416 270.144 798.696 271.632C797.976 273.12 796.968 274.29 795.672 275.142C794.376 275.994 792.876 276.42 791.172 276.42C789.708 276.42 788.424 276.12 787.32 275.52C786.216 274.92 785.376 274.08 784.8 273L784.8 283.908L781.776 283.908ZM790.812 273.792C791.94 273.792 792.942 273.498 793.818 272.91C794.694 272.322 795.39 271.482 795.906 270.39C796.422 269.298 796.68 268.008 796.68 266.52C796.68 265.032 796.422 263.742 795.906 262.65C795.39 261.558 794.694 260.718 793.818 260.13C792.942 259.542 791.94 259.248 790.812 259.248C789.612 259.248 788.568 259.542 787.68 260.13C786.792 260.718 786.108 261.558 785.628 262.65C785.148 263.742 784.908 265.032 784.908 266.52C784.908 268.008 785.148 269.298 785.628 270.39C786.108 271.482 786.792 272.322 787.68 272.91C788.568 273.498 789.612 273.792 790.812 273.792Z"/>
<path d="M804.168 283.908L804.168 257.052L806.904 257.052L807.156 260.004L807.156 260.004C807.54 259.38 808.026 258.816 808.614 258.312C809.202 257.808 809.91 257.4 810.738 257.088C811.566 256.776 812.52 256.62 813.6 256.62C815.304 256.62 816.798 257.052 818.082 257.916C819.366 258.78 820.368 259.956 821.088 261.444C821.808 262.932 822.168 264.636 822.168 266.556C822.168 268.452 821.808 270.144 821.088 271.632C820.368 273.12 819.36 274.29 818.064 275.142C816.768 275.994 815.268 276.42 813.564 276.42C812.1 276.42 810.816 276.12 809.712 275.52C808.608 274.92 807.768 274.08 807.192 273L807.192 283.908L804.168 283.908ZM813.204 273.792C814.332 273.792 815.334 273.498 816.21 272.91C817.086 272.322 817.782 271.482 818.298 270.39C818.814 269.298 819.072 268.008 819.072 266.52C819.072 265.032 818.814 263.742 818.298 262.65C817.782 261.558 817.086 260.718 816.21 260.13C815.334 259.542 814.332 259.248 813.204 259.248C812.004 259.248 810.96 259.542 810.072 260.13C809.184 260.718 808.5 261.558 808.02 262.65C807.54 263.742 807.3 265.032 807.3 266.52C807.3 268.008 807.54 269.298 808.02 270.39C808.5 271.482 809.184 272.322 810.072 272.91C810.96 273.498 812.004 273.792 813.204 273.792Z"/>
<path d="M833.4 276.42C831.696 276.42 830.286 276.162 829.17 275.646C828.054 275.13 827.208 274.41 826.632 273.486C826.056 272.562 825.708 271.488 825.588 270.264L828.684 270.264C828.78 270.912 829.002 271.506 829.35 272.046C829.698 272.586 830.208 273.024 830.88 273.36C831.552 273.696 832.404 273.864 833.436 273.864C834.252 273.864 834.948 273.738 835.524 273.486C836.1 273.234 836.538 272.88 836.838 272.424C837.138 271.968 837.288 271.44 837.288 270.84C837.288 270.048 837.114 269.43 836.766 268.986C836.418 268.542 835.914 268.206 835.254 267.978C834.594 267.75 833.772 267.576 832.788 267.456C831.732 267.312 830.796 267.108 829.98 266.844C829.164 266.58 828.474 266.232 827.91 265.8C827.346 265.368 826.92 264.828 826.632 264.18C826.344 263.532 826.2 262.764 826.2 261.876C826.2 260.844 826.476 259.932 827.028 259.14C827.58 258.348 828.366 257.73 829.386 257.286C830.406 256.842 831.612 256.62 833.004 256.62C835.044 256.62 836.658 257.088 837.846 258.024C839.034 258.96 839.736 260.292 839.952 262.02L836.964 262.02C836.844 261.132 836.436 260.436 835.74 259.932C835.044 259.428 834.12 259.176 832.968 259.176C831.744 259.176 830.82 259.404 830.196 259.86C829.572 260.316 829.26 260.916 829.26 261.66C829.26 262.212 829.398 262.71 829.674 263.154C829.95 263.598 830.424 263.97 831.096 264.27C831.768 264.57 832.668 264.792 833.796 264.936C835.212 265.104 836.412 265.374 837.396 265.746C838.38 266.118 839.13 266.688 839.646 267.456C840.162 268.224 840.408 269.268 840.384 270.588C840.384 271.836 840.09 272.892 839.502 273.756C838.914 274.62 838.098 275.28 837.054 275.736C836.01 276.192 834.792 276.42 833.4 276.42Z"/>
<path d="M842.724 280.416L844.812 272.46L847.944 272.46L844.812 280.416L842.724 280.416Z"/>
<path d="M869.364 276.42C867.684 276.42 866.196 275.988 864.9 275.124C863.604 274.26 862.596 273.078 861.876 271.578C861.156 270.078 860.796 268.38 860.796 266.484C860.796 264.564 861.156 262.866 861.876 261.39C862.596 259.914 863.604 258.75 864.9 257.898C866.196 257.046 867.696 256.62 869.4 256.62C870.888 256.62 872.166 256.92 873.234 257.52C874.302 258.12 875.148 258.96 875.772 260.04L875.772 250.068L878.796 250.068L878.796 275.988L876.06 275.988L875.808 272.964L875.808 272.964C875.448 273.564 874.974 274.128 874.386 274.656C873.798 275.184 873.09 275.61 872.262 275.934C871.434 276.258 870.468 276.42 869.364 276.42ZM869.76 273.792C870.96 273.792 872.004 273.498 872.892 272.91C873.78 272.322 874.464 271.482 874.944 270.39C875.424 269.298 875.664 268.008 875.664 266.52C875.664 265.032 875.424 263.742 874.944 262.65C874.464 261.558 873.78 260.718 872.892 260.13C872.004 259.542 870.96 259.248 869.76 259.248C868.632 259.248 867.624 259.542 866.736 260.13C865.848 260.718 865.152 261.558 864.648 262.65C864.144 263.742 863.892 265.032 863.892 266.52C863.892 268.008 864.144 269.298 864.648 270.39C865.152 271.482 865.848 272.322 866.736 272.91C867.624 273.498 868.632 273.792 869.76 273.792Z"/>
<path d="M889.812 276.42C888.372 276.42 887.172 276.15 886.212 275.61C885.252 275.07 884.532 274.35 884.052 273.45C883.572 272.55 883.332 271.584 883.332 270.552C883.332 269.304 883.65 268.242 884.286 267.366C884.922 266.49 885.816 265.824 886.968 265.368C888.12 264.912 889.464 264.684 891 264.684L895.716 264.684C895.716 263.46 895.572 262.44 895.284 261.624C894.996 260.808 894.528 260.196 893.88 259.788C893.232 259.38 892.368 259.176 891.288 259.176C890.208 259.176 889.284 259.446 888.516 259.986C887.748 260.526 887.268 261.324 887.076 262.38L883.98 262.38C884.124 261.132 884.544 260.082 885.24 259.23C885.936 258.378 886.818 257.73 887.886 257.286C888.954 256.842 890.088 256.62 891.288 256.62C892.992 256.62 894.396 256.926 895.5 257.538C896.604 258.15 897.42 259.002 897.948 260.094C898.476 261.186 898.74 262.476 898.74 263.964L898.74 275.988L896.04 275.988L895.86 272.748L895.86 272.748C895.62 273.252 895.314 273.726 894.942 274.17C894.57 274.614 894.132 275.004 893.628 275.34C893.124 275.676 892.554 275.94 891.918 276.132C891.282 276.324 890.58 276.42 889.812 276.42ZM890.244 273.864C891.036 273.864 891.768 273.684 892.44 273.324C893.112 272.964 893.694 272.478 894.186 271.866C894.678 271.254 895.056 270.564 895.32 269.796C895.584 269.028 895.716 268.224 895.716 267.384L895.716 267.024L891.252 267.024C890.124 267.024 889.206 267.168 888.498 267.456C887.79 267.744 887.28 268.146 886.968 268.662C886.656 269.178 886.5 269.76 886.5 270.408C886.5 271.104 886.644 271.71 886.932 272.226C887.22 272.742 887.646 273.144 888.21 273.432C888.774 273.72 889.452 273.864 890.244 273.864Z"/>
<path d="M910.584 275.988C909.504 275.988 908.568 275.82 907.776 275.484C906.984 275.148 906.378 274.578 905.958 273.774C905.538 272.97 905.328 271.884 905.328 270.516L905.328 259.608L902.016 259.608L902.016 257.052L905.328 257.052L905.724 252.336L908.352 252.336L908.352 257.052L913.716 257.052L913.716 259.608L908.352 259.608L908.352 270.516C908.352 271.644 908.58 272.406 909.036 272.802C909.492 273.198 910.296 273.396 911.448 273.396L913.644 273.396L913.644 275.988L910.584 275.988Z"/>
<path d="M923.76 276.42C922.32 276.42 921.12 276.15 920.16 275.61C919.2 275.07 918.48 274.35 918 273.45C917.52 272.55 917.28 271.584 917.28 270.552C917.28 269.304 917.598 268.242 918.234 267.366C918.87 266.49 919.764 265.824 920.916 265.368C922.068 264.912 923.412 264.684 924.948 264.684L929.664 264.684C929.664 263.46 929.52 262.44 929.232 261.624C928.944 260.808 928.476 260.196 927.828 259.788C927.18 259.38 926.316 259.176 925.236 259.176C924.156 259.176 923.232 259.446 922.464 259.986C921.696 260.526 921.216 261.324 921.024 262.38L917.928 262.38C918.072 261.132 918.492 260.082 919.188 259.23C919.884 258.378 920.766 257.73 921.834 257.286C922.902 256.842 924.036 256.62 925.236 256.62C926.94 256.62 928.344 256.926 929.448 257.538C930.552 258.15 931.368 259.002 931.896 260.094C932.424 261.186 932.688 262.476 932.688 263.964L932.688 275.988L929.988 275.988L929.808 272.748L929.808 272.748C929.568 273.252 929.262 273.726 928.89 274.17C928.518 274.614 928.08 275.004 927.576 275.34C927.072 275.676 926.502 275.94 925.866 276.132C925.23 276.324 924.528 276.42 923.76 276.42ZM924.192 273.864C924.984 273.864 925.716 273.684 926.388 273.324C927.06 272.964 927.642 272.478 928.134 271.866C928.626 271.254 929.004 270.564 929.268 269.796C929.532 269.028 929.664 268.224 929.664 267.384L929.664 267.024L925.2 267.024C924.072 267.024 923.154 267.168 922.446 267.456C921.738 267.744 921.228 268.146 920.916 268.662C920.604 269.178 920.448 269.76 920.448 270.408C920.448 271.104 920.592 271.71 920.88 272.226C921.168 272.742 921.594 273.144 922.158 273.432C922.722 273.72 923.4 273.864 924.192 273.864Z"/>
<path d="M953.28 276.42C951.84 276.42 950.64 276.15 949.68 275.61C948.72 275.07 948 274.35 947.52 273.45C947.04 272.55 946.8 271.584 946.8 270.552C946.8 269.304 947.118 268.242 947.754 267.366C948.39 266.49 949.284 265.824 950.436 265.368C951.588 264.912 952.932 264.684 954.468 264.684L959.184 264.684C959.184 263.46 959.04 262.44 958.752 261.624C958.464 260.808 957.996 260.196 957.348 259.788C956.7 259.38 955.836 259.176 954.756 259.176C953.676 259.176 952.752 259.446 951.984 259.986C951.216 260.526 950.736 261.324 950.544 262.38L947.448 262.38C947.592 261.132 948.012 260.082 948.708 259.23C949.404 258.378 950.286 257.73 951.354 257.286C952.422 256.842 953.556 256.62 954.756 256.62C956.46 256.62 957.864 256.926 958.968 257.538C960.072 258.15 960.888 259.002 961.416 260.094C961.944 261.186 962.208 262.476 962.208 263.964L962.208 275.988L959.508 275.988L959.328 272.748L959.328 272.748C959.088 273.252 958.782 273.726 958.41 274.17C958.038 274.614 957.6 275.004 957.096 275.34C956.592 275.676 956.022 275.94 955.386 276.132C954.75 276.324 954.048 276.42 953.28 276.42ZM953.712 273.864C954.504 273.864 955.236 273.684 955.908 273.324C956.58 272.964 957.162 272.478 957.654 271.866C958.146 271.254 958.524 270.564 958.788 269.796C959.052 269.028 959.184 268.224 959.184 267.384L959.184 267.024L954.72 267.024C953.592 267.024 952.674 267.168 951.966 267.456C951.258 267.744 950.748 268.146 950.436 268.662C950.124 269.178 949.968 269.76 949.968 270.408C949.968 271.104 950.112 271.71 950.4 272.226C950.688 272.742 951.114 273.144 951.678 273.432C952.242 273.72 952.92 273.864 953.712 273.864Z"/>
<path d="M967.212 275.988L967.212 257.052L969.948 257.052L970.092 260.04L970.092 260.04C970.644 258.96 971.442 258.12 972.486 257.52C973.53 256.92 974.736 256.62 976.104 256.62C977.496 256.62 978.708 256.884 979.74 257.412C980.772 257.94 981.576 258.744 982.152 259.824C982.728 260.904 983.016 262.272 983.016 263.928L983.016 275.988L979.992 275.988L979.992 264.252C979.992 262.572 979.578 261.312 978.75 260.472C977.922 259.632 976.812 259.212 975.42 259.212C974.484 259.212 973.62 259.434 972.828 259.878C972.036 260.322 971.406 260.976 970.938 261.84C970.47 262.704 970.236 263.76 970.236 265.008L970.236 275.988L967.212 275.988Z"/>
<path d="M995.832 276.42C994.152 276.42 992.664 275.988 991.368 275.124C990.072 274.26 989.064 273.078 988.344 271.578C987.624 270.078 987.264 268.38 987.264 266.484C987.264 264.564 987.624 262.866 988.344 261.39C989.064 259.914 990.072 258.75 991.368 257.898C992.664 257.046 994.164 256.62 995.868 256.62C997.356 256.62 998.634 256.92 999.702 257.52C1000.77 258.12 1001.62 258.96 1002.24 260.04L1002.24 250.068L1005.26 250.068L1005.26 275.988L1002.53 275.988L1002.28 272.964L1002.28 272.964C1001.92 273.564 1001.44 274.128 1000.85 274.656C1000.27 275.184 999.558 275.61 998.73 275.934C997.902 276.258 996.936 276.42 995.832 276.42ZM996.228 273.792C997.428 273.792 998.472 273.498 999.36 272.91C1000.25 272.322 1000.93 271.482 1001.41 270.39C1001.89 269.298 1002.13 268.008 1002.13 266.52C1002.13 265.032 1001.89 263.742 1001.41 262.65C1000.93 261.558 1000.25 260.718 999.36 260.13C998.472 259.542 997.428 259.248 996.228 259.248C995.1 259.248 994.092 259.542 993.204 260.13C992.316 260.718 991.62 261.558 991.116 262.65C990.612 263.742 990.36 265.032 990.36 266.52C990.36 268.008 990.612 269.298 991.116 270.39C991.62 271.482 992.316 272.322 993.204 272.91C994.092 273.498 995.1 273.792 996.228 273.792Z"/>
<path d="M1020.35 275.988L1020.35 257.052L1023.37 257.052L1023.37 275.988L1020.35 275.988ZM1021.86 253.452C1021.26 253.452 1020.76 253.254 1020.37 252.858C1019.97 252.462 1019.77 251.964 1019.77 251.364C1019.77 250.764 1019.97 250.278 1020.37 249.906C1020.76 249.534 1021.26 249.348 1021.86 249.348C1022.44 249.348 1022.93 249.534 1023.34 249.906C1023.74 250.278 1023.95 250.764 1023.95 251.364C1023.95 251.964 1023.74 252.462 1023.34 252.858C1022.93 253.254 1022.44 253.452 1021.86 253.452Z"/>
<path d="M1028.74 275.988L1028.74 257.052L1031.47 257.052L1031.62 260.04L1031.62 260.04C1032.17 258.96 1032.97 258.12 1034.01 257.52C1035.05 256.92 1036.26 256.62 1037.63 256.62C1039.02 256.62 1040.23 256.884 1041.26 257.412C1042.3 257.94 1043.1 258.744 1043.68 259.824C1044.25 260.904 1044.54 262.272 1044.54 263.928L1044.54 275.988L1041.52 275.988L1041.52 264.252C1041.52 262.572 1041.1 261.312 1040.27 260.472C1039.45 259.632 1038.34 259.212 1036.94 259.212C1036.01 259.212 1035.14 259.434 1034.35 259.878C1033.56 260.322 1032.93 260.976 1032.46 261.84C1031.99 262.704 1031.76 263.76 1031.76 265.008L1031.76 275.988L1028.74 275.988Z"/>
<path d="M1050.73 275.988L1050.73 255.036C1050.73 253.884 1050.92 252.942 1051.31 252.21C1051.69 251.478 1052.26 250.938 1053.02 250.59C1053.77 250.242 1054.7 250.068 1055.81 250.068L1058.58 250.068L1058.58 252.66L1056.31 252.66C1055.4 252.66 1054.75 252.846 1054.35 253.218C1053.95 253.59 1053.76 254.232 1053.76 255.144L1053.76 275.988L1050.73 275.988ZM1047.78 259.608L1047.78 257.052L1058.8 257.052L1058.8 259.608L1047.78 259.608Z"/>
<path d="M1062.54 275.988L1062.54 257.052L1065.28 257.052L1065.49 260.508L1065.49 260.508C1065.92 259.644 1066.49 258.924 1067.18 258.348C1067.88 257.772 1068.73 257.34 1069.72 257.052C1070.72 256.764 1071.84 256.62 1073.09 256.62L1073.09 259.788L1071.22 259.788C1070.5 259.788 1069.8 259.884 1069.13 260.076C1068.46 260.268 1067.85 260.58 1067.31 261.012C1066.77 261.444 1066.34 262.032 1066.03 262.776C1065.72 263.52 1065.56 264.456 1065.56 265.584L1065.56 275.988L1062.54 275.988Z"/>
<path d="M1082.48 276.42C1081.04 276.42 1079.84 276.15 1078.88 275.61C1077.92 275.07 1077.2 274.35 1076.72 273.45C1076.24 272.55 1076 271.584 1076 270.552C1076 269.304 1076.32 268.242 1076.96 267.366C1077.59 266.49 1078.49 265.824 1079.64 265.368C1080.79 264.912 1082.14 264.684 1083.67 264.684L1088.39 264.684C1088.39 263.46 1088.24 262.44 1087.96 261.624C1087.67 260.808 1087.2 260.196 1086.55 259.788C1085.9 259.38 1085.04 259.176 1083.96 259.176C1082.88 259.176 1081.96 259.446 1081.19 259.986C1080.42 260.526 1079.94 261.324 1079.75 262.38L1076.65 262.38C1076.8 261.132 1077.22 260.082 1077.91 259.23C1078.61 258.378 1079.49 257.73 1080.56 257.286C1081.63 256.842 1082.76 256.62 1083.96 256.62C1085.66 256.62 1087.07 256.926 1088.17 257.538C1089.28 258.15 1090.09 259.002 1090.62 260.094C1091.15 261.186 1091.41 262.476 1091.41 263.964L1091.41 275.988L1088.71 275.988L1088.53 272.748L1088.53 272.748C1088.29 273.252 1087.99 273.726 1087.61 274.17C1087.24 274.614 1086.8 275.004 1086.3 275.34C1085.8 275.676 1085.23 275.94 1084.59 276.132C1083.95 276.324 1083.25 276.42 1082.48 276.42ZM1082.92 273.864C1083.71 273.864 1084.44 273.684 1085.11 273.324C1085.78 272.964 1086.37 272.478 1086.86 271.866C1087.35 271.254 1087.73 270.564 1087.99 269.796C1088.26 269.028 1088.39 268.224 1088.39 267.384L1088.39 267.024L1083.92 267.024C1082.8 267.024 1081.88 267.168 1081.17 267.456C1080.46 267.744 1079.95 268.146 1079.64 268.662C1079.33 269.178 1079.17 269.76 1079.17 270.408C1079.17 271.104 1079.32 271.71 1079.6 272.226C1079.89 272.742 1080.32 273.144 1080.88 273.432C1081.45 273.72 1082.12 273.864 1082.92 273.864Z"/>
<path d="M1103.26 276.42C1101.55 276.42 1100.14 276.162 1099.03 275.646C1097.91 275.13 1097.06 274.41 1096.49 273.486C1095.91 272.562 1095.56 271.488 1095.44 270.264L1098.54 270.264C1098.64 270.912 1098.86 271.506 1099.21 272.046C1099.55 272.586 1100.06 273.024 1100.74 273.36C1101.41 273.696 1102.26 273.864 1103.29 273.864C1104.11 273.864 1104.8 273.738 1105.38 273.486C1105.96 273.234 1106.39 272.88 1106.69 272.424C1106.99 271.968 1107.14 271.44 1107.14 270.84C1107.14 270.048 1106.97 269.43 1106.62 268.986C1106.27 268.542 1105.77 268.206 1105.11 267.978C1104.45 267.75 1103.63 267.576 1102.64 267.456C1101.59 267.312 1100.65 267.108 1099.84 266.844C1099.02 266.58 1098.33 266.232 1097.77 265.8C1097.2 265.368 1096.78 264.828 1096.49 264.18C1096.2 263.532 1096.06 262.764 1096.06 261.876C1096.06 260.844 1096.33 259.932 1096.88 259.14C1097.44 258.348 1098.22 257.73 1099.24 257.286C1100.26 256.842 1101.47 256.62 1102.86 256.62C1104.9 256.62 1106.51 257.088 1107.7 258.024C1108.89 258.96 1109.59 260.292 1109.81 262.02L1106.82 262.02C1106.7 261.132 1106.29 260.436 1105.6 259.932C1104.9 259.428 1103.98 259.176 1102.82 259.176C1101.6 259.176 1100.68 259.404 1100.05 259.86C1099.43 260.316 1099.12 260.916 1099.12 261.66C1099.12 262.212 1099.25 262.71 1099.53 263.154C1099.81 263.598 1100.28 263.97 1100.95 264.27C1101.62 264.57 1102.52 264.792 1103.65 264.936C1105.07 265.104 1106.27 265.374 1107.25 265.746C1108.24 266.118 1108.99 266.688 1109.5 267.456C1110.02 268.224 1110.26 269.268 1110.24 270.588C1110.24 271.836 1109.95 272.892 1109.36 273.756C1108.77 274.62 1107.95 275.28 1106.91 275.736C1105.87 276.192 1104.65 276.42 1103.26 276.42Z"/>
<path d="M1121.29 275.988C1120.21 275.988 1119.28 275.82 1118.48 275.484C1117.69 275.148 1117.09 274.578 1116.67 273.774C1116.25 272.97 1116.04 271.884 1116.04 270.516L1116.04 259.608L1112.72 259.608L1112.72 257.052L1116.04 257.052L1116.43 252.336L1119.06 252.336L1119.06 257.052L1124.42 257.052L1124.42 259.608L1119.06 259.608L1119.06 270.516C1119.06 271.644 1119.29 272.406 1119.74 272.802C1120.2 273.198 1121 273.396 1122.16 273.396L1124.35 273.396L1124.35 275.988L1121.29 275.988Z"/>
<path d="M1128.56 275.988L1128.56 257.052L1131.3 257.052L1131.52 260.508L1131.52 260.508C1131.95 259.644 1132.51 258.924 1133.21 258.348C1133.9 257.772 1134.75 257.34 1135.75 257.052C1136.74 256.764 1137.86 256.62 1139.11 256.62L1139.11 259.788L1137.24 259.788C1136.52 259.788 1135.82 259.884 1135.15 260.076C1134.48 260.268 1133.87 260.58 1133.33 261.012C1132.79 261.444 1132.37 262.032 1132.06 262.776C1131.74 263.52 1131.59 264.456 1131.59 265.584L1131.59 275.988L1128.56 275.988Z"/>
<path d="M1149.41 276.42C1148.02 276.42 1146.8 276.156 1145.77 275.628C1144.74 275.1 1143.94 274.29 1143.36 273.198C1142.78 272.106 1142.5 270.744 1142.5 269.112L1142.5 257.052L1145.52 257.052L1145.52 268.788C1145.52 270.468 1145.93 271.728 1146.76 272.568C1147.59 273.408 1148.7 273.828 1150.09 273.828C1151.05 273.828 1151.92 273.606 1152.68 273.162C1153.45 272.718 1154.07 272.064 1154.54 271.2C1155.01 270.336 1155.24 269.28 1155.24 268.032L1155.24 257.052L1158.26 257.052L1158.26 275.988L1155.53 275.988L1155.35 272.964L1155.35 272.964C1154.84 274.068 1154.07 274.92 1153.03 275.52C1151.98 276.12 1150.78 276.42 1149.41 276.42Z"/>
<path d="M1171.55 276.42C1169.82 276.42 1168.28 276.006 1166.94 275.178C1165.6 274.35 1164.54 273.192 1163.77 271.704C1163 270.216 1162.62 268.488 1162.62 266.52C1162.62 264.528 1163 262.794 1163.77 261.318C1164.54 259.842 1165.6 258.69 1166.94 257.862C1168.28 257.034 1169.82 256.62 1171.55 256.62C1173.71 256.62 1175.51 257.196 1176.97 258.348C1178.42 259.5 1179.35 261.048 1179.76 262.992L1176.66 262.992C1176.4 261.792 1175.79 260.862 1174.84 260.202C1173.89 259.542 1172.78 259.212 1171.51 259.212C1170.41 259.212 1169.42 259.488 1168.54 260.04C1167.67 260.592 1166.98 261.408 1166.47 262.488C1165.97 263.568 1165.72 264.912 1165.72 266.52C1165.72 267.72 1165.86 268.782 1166.15 269.706C1166.44 270.63 1166.84 271.398 1167.35 272.01C1167.87 272.622 1168.48 273.084 1169.19 273.396C1169.9 273.708 1170.67 273.864 1171.51 273.864C1172.38 273.864 1173.16 273.714 1173.87 273.414C1174.58 273.114 1175.18 272.676 1175.67 272.1C1176.16 271.524 1176.49 270.84 1176.66 270.048L1179.76 270.048C1179.37 271.944 1178.44 273.48 1176.97 274.656C1175.49 275.832 1173.68 276.42 1171.55 276.42Z"/>
<path d="M1190.99 275.988C1189.91 275.988 1188.97 275.82 1188.18 275.484C1187.39 275.148 1186.78 274.578 1186.36 273.774C1185.94 272.97 1185.73 271.884 1185.73 270.516L1185.73 259.608L1182.42 259.608L1182.42 257.052L1185.73 257.052L1186.13 252.336L1188.76 252.336L1188.76 257.052L1194.12 257.052L1194.12 259.608L1188.76 259.608L1188.76 270.516C1188.76 271.644 1188.98 272.406 1189.44 272.802C1189.9 273.198 1190.7 273.396 1191.85 273.396L1194.05 273.396L1194.05 275.988L1190.99 275.988Z"/>
<path d="M1205.06 276.42C1203.67 276.42 1202.46 276.156 1201.43 275.628C1200.4 275.1 1199.59 274.29 1199.02 273.198C1198.44 272.106 1198.15 270.744 1198.15 269.112L1198.15 257.052L1201.18 257.052L1201.18 268.788C1201.18 270.468 1201.59 271.728 1202.42 272.568C1203.25 273.408 1204.36 273.828 1205.75 273.828C1206.71 273.828 1207.57 273.606 1208.34 273.162C1209.11 272.718 1209.73 272.064 1210.19 271.2C1210.66 270.336 1210.9 269.28 1210.9 268.032L1210.9 257.052L1213.92 257.052L1213.92 275.988L1211.18 275.988L1211 272.964L1211 272.964C1210.5 274.068 1209.73 274.92 1208.68 275.52C1207.64 276.12 1206.43 276.42 1205.06 276.42Z"/>
<path d="M1219.03 275.988L1219.03 257.052L1221.77 257.052L1221.98 260.508L1221.98 260.508C1222.42 259.644 1222.98 258.924 1223.68 258.348C1224.37 257.772 1225.22 257.34 1226.21 257.052C1227.21 256.764 1228.33 256.62 1229.58 256.62L1229.58 259.788L1227.71 259.788C1226.99 259.788 1226.29 259.884 1225.62 260.076C1224.95 260.268 1224.34 260.58 1223.8 261.012C1223.26 261.444 1222.84 262.032 1222.52 262.776C1222.21 263.52 1222.06 264.456 1222.06 265.584L1222.06 275.988L1219.03 275.988Z"/>
<path d="M1240.24 276.42C1238.56 276.42 1237.07 276.012 1235.77 275.196C1234.48 274.38 1233.46 273.228 1232.73 271.74C1232 270.252 1231.63 268.512 1231.63 266.52C1231.63 264.528 1232 262.788 1232.73 261.3C1233.46 259.812 1234.48 258.66 1235.79 257.844C1237.1 257.028 1238.6 256.62 1240.31 256.62C1242.13 256.62 1243.66 257.028 1244.88 257.844C1246.1 258.66 1247.03 259.752 1247.65 261.12C1248.28 262.488 1248.59 263.988 1248.59 265.62C1248.59 265.86 1248.59 266.1 1248.59 266.34C1248.59 266.58 1248.58 266.868 1248.55 267.204L1233.9 267.204L1233.9 264.864L1245.64 264.864C1245.59 263.016 1245.05 261.606 1244.03 260.634C1243.01 259.662 1241.75 259.176 1240.24 259.176C1239.23 259.176 1238.3 259.422 1237.45 259.914C1236.59 260.406 1235.9 261.132 1235.38 262.092C1234.85 263.052 1234.58 264.252 1234.58 265.692L1234.58 266.7C1234.58 268.284 1234.85 269.61 1235.38 270.678C1235.9 271.746 1236.59 272.544 1237.45 273.072C1238.3 273.6 1239.23 273.864 1240.24 273.864C1241.58 273.864 1242.64 273.606 1243.4 273.09C1244.17 272.574 1244.74 271.836 1245.1 270.876L1248.08 270.876C1247.8 271.932 1247.3 272.88 1246.59 273.72C1245.88 274.56 1244.99 275.22 1243.93 275.7C1242.86 276.18 1241.63 276.42 1240.24 276.42Z"/>
<path d="M1253.95 276.168C1253.38 276.168 1252.89 275.97 1252.49 275.574C1252.1 275.178 1251.9 274.692 1251.9 274.116C1251.9 273.54 1252.1 273.054 1252.49 272.658C1252.89 272.262 1253.38 272.064 1253.95 272.064C1254.58 272.064 1255.07 272.262 1255.45 272.658C1255.82 273.054 1256 273.54 1256 274.116C1256 274.692 1255.82 275.178 1255.45 275.574C1255.07 275.97 1254.58 276.168 1253.95 276.168Z"/>
</g>
<path d="M334.679 63.3047L505.603 63.3047L505.603 204.64L334.679 204.64L334.679 63.3047Z" fill="#ffffff" fill-rule="nonzero" opacity="1" stroke="none" vectornator:layerName="Rectangle 1"/>
<g opacity="1" vectornator:layerName="Group 2">
<g opacity="1" vectornator:layerName="g">
<path d="M554.037 180.119C581.023 180.119 597.024 163.426 597.024 135.747C597.024 108.156 581.023 91.5496 554.642 91.5496L524.024 91.5496L524.024 180.119L554.037 180.119ZM540.068 166.236L540.068 105.432L553.734 105.432C571.725 105.432 581.109 115.465 581.109 135.747C581.109 156.117 571.725 166.236 553.258 166.236L540.068 166.236Z" fill="#262626" fill-rule="nonzero" opacity="1" stroke="none" vectornator:layerName="path"/>
<path d="M606.481 180.119L622.137 180.119L622.137 113.692L606.481 113.692L606.481 180.119ZM614.352 104.264C619.326 104.264 623.391 100.458 623.391 95.7878C623.391 91.0737 619.326 87.2681 614.352 87.2681C609.336 87.2681 605.27 91.0737 605.27 95.7878C605.27 100.458 609.336 104.264 614.352 104.264Z" fill="#262626" fill-rule="nonzero" opacity="1" stroke="none" vectornator:layerName="path"/>
<path d="M692.485 113.692L675.835 113.692L660.526 163.036L659.834 163.036L644.568 113.692L627.874 113.692L651.53 180.119L668.829 180.119L692.485 113.692Z" fill="#262626" fill-rule="nonzero" opacity="1" stroke="none" vectornator:layerName="path"/>
<path d="M698.223 180.119L713.878 180.119L713.878 113.692L698.223 113.692L698.223 180.119ZM706.094 104.264C711.067 104.264 715.132 100.458 715.132 95.7878C715.132 91.0737 711.067 87.2681 706.094 87.2681C701.077 87.2681 697.012 91.0737 697.012 95.7878C697.012 100.458 701.077 104.264 706.094 104.264Z" fill="#262626" fill-rule="nonzero" opacity="1" stroke="none" vectornator:layerName="path"/>
<path d="M777.393 131.25C775.231 120.006 766.236 112.827 750.667 112.827C734.666 112.827 723.768 120.698 723.811 132.98C723.768 142.667 729.736 149.068 742.493 151.706L753.824 154.084C759.922 155.425 762.776 157.89 762.776 161.652C762.776 166.193 757.846 169.61 750.407 169.61C743.229 169.61 738.558 166.496 737.217 160.528L721.951 161.998C723.897 174.194 734.147 181.416 750.451 181.416C767.057 181.416 778.777 172.81 778.821 160.225C778.777 150.754 772.679 144.959 760.138 142.235L748.807 139.813C742.061 138.299 739.379 135.964 739.423 132.115C739.379 127.617 744.353 124.504 750.883 124.504C758.105 124.504 761.911 128.439 763.122 132.807L777.393 131.25Z" fill="#262626" fill-rule="nonzero" opacity="1" stroke="none" vectornator:layerName="path"/>
<path d="M786.678 180.119L802.333 180.119L802.333 113.692L786.678 113.692L786.678 180.119ZM794.549 104.264C799.522 104.264 803.587 100.458 803.587 95.7878C803.587 91.0737 799.522 87.2681 794.549 87.2681C789.532 87.2681 785.467 91.0737 785.467 95.7878C785.467 100.458 789.532 104.264 794.549 104.264Z" fill="#262626" fill-rule="nonzero" opacity="1" stroke="none" vectornator:layerName="path"/>
<path d="M842.321 181.416C861.782 181.416 874.152 167.707 874.152 147.165C874.152 126.579 861.782 112.827 842.321 112.827C822.862 112.827 810.493 126.579 810.493 147.165C810.493 167.707 822.862 181.416 842.321 181.416ZM842.407 168.874C831.64 168.874 826.365 159.274 826.365 147.121C826.365 134.969 831.64 125.239 842.407 125.239C853.005 125.239 858.28 134.969 858.28 147.121C858.28 159.274 853.005 168.874 842.407 168.874Z" fill="#262626" fill-rule="nonzero" opacity="1" stroke="none" vectornator:layerName="path"/>
<path d="M897.965 141.197C897.965 131.596 903.762 126.06 912.021 126.06C920.108 126.06 924.954 131.38 924.954 140.245L924.954 180.119L940.609 180.119L940.609 137.823C940.65 121.909 931.569 112.827 917.859 112.827C907.914 112.827 901.081 117.584 898.052 124.979L897.274 124.979L897.274 113.692L882.31 113.692L882.31 180.119L897.965 180.119L897.965 141.197Z" fill="#262626" fill-rule="nonzero" opacity="1" stroke="none" vectornator:layerName="path"/>
</g>
<g opacity="1" vectornator:layerName="Group 1">
<path d="M375.575 80.0002L465.041 80.0002C471.218 80.0002 476.225 85.0072 476.225 91.1836L476.225 180.65C476.225 186.827 471.218 191.834 465.041 191.834L375.575 191.834C369.398 191.834 364.391 186.827 364.391 180.65L364.391 91.1836C364.391 85.0072 369.398 80.0002 375.575 80.0002Z" fill="#1b1b1b" fill-rule="nonzero" opacity="1" stroke="none" vectornator:layerName="path"/>
<path d="M392.657 191.02L385.121 213.271C383.778 217.238 384.128 220.941 385.904 221.543L395.602 224.827C397.377 225.429 399.906 222.7 401.249 218.733L455.495 58.563C456.838 54.5959 456.488 50.8926 454.712 50.2913L445.014 47.0069C443.239 46.4054 440.71 49.1338 439.367 53.1009L392.657 191.02" fill="#ffffff" fill-rule="nonzero" opacity="1" stroke="none" vectornator:layerName="path 1"/>
</g>
</g>
</g>
</svg>
